<?xml version="1.0" encoding="utf-8"?>
<!-- Generator: Adobe Illustrator 26.0.2, SVG Export Plug-In . SVG Version: 6.00 Build 0)  -->
<svg version="1.1" id="Layer_1" xmlns="http://www.w3.org/2000/svg" xmlns:xlink="http://www.w3.org/1999/xlink" x="0px" y="0px"
	 viewBox="0 0 531 74" style="enable-background:new 0 0 531 74;" xml:space="preserve">
<style type="text/css">
	.st0{fill:#3399FF;}
	.st1{fill:#FFFFFF;}
	.st2{fill:#3A3A3A;}
</style>
<g>
	<g>
		<path class="st0" d="M36.9,73.8c20.4,0,36.9-16.5,36.9-36.9S57.3,0,36.9,0S0,16.5,0,36.9S16.5,73.8,36.9,73.8z"/>
		<path class="st1" d="M44.9,22.1c-22.5,8.3-23.7,30.8-23.7,30.8H10.4c0,0,4.7-22.9,33.5-32.4L44.9,22.1z"/>
		<path class="st1" d="M37.8,52.9H27.5c0,0,1.3-17.3,20-24.4l0.8,1.3C36.3,33.6,37.8,52.9,37.8,52.9z"/>
		<path class="st1" d="M43.8,52.9h7.8c-4.9-6-2.5-16.2-2.5-16.2S41.9,39.9,43.8,52.9z"/>
		<path class="st1" d="M58.7,44.7l0.5-3.9L45.8,12.2l9.7,30L58.7,44.7z"/>
		<path class="st1" d="M53.1,18.9l1.3,1H60v-1H53.1z"/>
		<path class="st1" d="M54.8,26.9l0.9,1H60v-1H54.8z"/>
		<path class="st2" d="M91.8,56V17.8h15.3c7.7,0,11.9,5.3,11.9,11.5s-4.4,11.5-11.9,11.5H96.5V56H91.8z M114.1,29.3
			c0-4.3-3.1-7.3-7.6-7.3h-10v14.5h10C111,36.6,114.1,33.6,114.1,29.3z"/>
		<path class="st2" d="M147.4,56l-9.7-15.2H130V56h-4.7V17.8h15.3c7,0,11.9,4.5,11.9,11.5c0,6.9-4.7,10.6-9.9,11.1L153,56H147.4z
			 M147.6,29.3c0-4.3-3.1-7.3-7.6-7.3h-10v14.6h10C144.6,36.6,147.6,33.6,147.6,29.3z"/>
		<path class="st2" d="M158.5,36.9c0-11.3,7.6-19.7,18.9-19.7c11.3,0,18.9,8.5,18.9,19.7s-7.7,19.7-18.9,19.7
			C166.2,56.6,158.5,48.2,158.5,36.9z M191.4,36.9c0-8.9-5.5-15.5-14-15.5s-14,6.6-14,15.5s5.4,15.5,14,15.5
			C186,52.4,191.4,45.8,191.4,36.9z"/>
		<path class="st2" d="M214,56l-15.3-38.1h5.4L217,50.8l12.9-32.9h5.4L219.9,56H214z"/>
		<path class="st2" d="M240.2,56V17.8h4.8V56H240.2z"/>
		<path class="st2" d="M253.9,56V17.8h13c11.8,0,19.5,8.3,19.5,19.1s-7.7,19-19.5,19L253.9,56z M281.5,37c0-8.2-5.2-14.9-14.6-14.9
			h-8.3v29.6h8.3C276.2,51.7,281.5,45.1,281.5,37z"/>
		<path class="st2" d="M293.9,56V17.8h25V22h-20.3v12.3h19.8v4.2h-19.8v13.1h20.2V56H293.9z"/>
		<path class="st2" d="M348.5,56l-9.7-15.2h-7.6V56h-4.7V17.8h15.3c7,0,11.9,4.5,11.9,11.5c0,6.9-4.7,10.6-9.9,11.1L354.1,56H348.5z
			 M348.8,29.3c0-4.3-3.1-7.3-7.6-7.3h-10v14.6h10C345.7,36.6,348.8,33.6,348.8,29.3z"/>
		<path class="st2" d="M368.1,56l7.8-35.1h-12.4l0.6-3h28.2l-0.6,3h-12.5L371.4,56H368.1z"/>
		<path class="st2" d="M413.2,56L406,40.2h-8.6L393.9,56h-3.3l8.4-38.1h13.1c5.1,0,10.3,3.5,10.3,9.6c0,7.1-5.1,12.3-13,12.6
			l7.5,15.9H413.2z M408.7,37.2c6.7,0,10.2-4.5,10.2-9.6c-0.1-3.9-3.3-6.9-7.2-6.8h-10.1L398,37.2H408.7z"/>
		<path class="st2" d="M427.5,44.2c0-1,0.1-2,0.3-2.9l5.1-23.5h3.3l-5.1,23.4c-0.2,0.8-0.3,1.7-0.3,2.6c0,5.8,3.9,9.8,10.8,9.8
			c7.5,0,10.9-4.7,12.6-12.4l5.1-23.4h3.3l-5.1,23.5c-2.1,9.4-6.2,15.3-15.9,15.3C432.8,56.6,427.5,51.8,427.5,44.2z"/>
		<path class="st2" d="M463.5,50l2.4-2.3c2.9,4,7.6,6.2,12.5,6.1c6.8,0,9.6-4.6,9.6-8.3c0-8.4-19-6.9-19-17.5
			c0-5.8,5.6-10.6,12.9-10.6c5.8,0,10.8,2.4,13.1,5.9l-2.5,2.3c-2.4-3.5-6.7-5.3-11-5.3c-5,0-9,3.5-9,7.3c0,7.7,19.1,6.6,19.1,17.5
			c0,5.7-4.6,11.7-13.5,11.7C471.5,56.6,465.8,53.7,463.5,50z"/>
		<path class="st2" d="M505.9,56l7.8-35.2h-12.5l0.6-3H530l-0.6,3H517l-7.8,35.1L505.9,56z"/>
	</g>
</g>
</svg>
